# xmcd
#
# Track frame offsets:
#	150
#	27655
#	53222
#	77145
#	105815
#	123042
#	145910
#	164362
#	185952
#	208030
#	233480
#
# Disc length: 3417 seconds
#
# Revision: 2
# Processed by: cddbd v1.5.2PL0 Copyright (c) Steve Scherf et al.
# Submitted via: EasyCDDAExtractor 11.5.0.1
#
DISCID=900d570b
DTITLE=A.S.A.P. - Attitude Soul And Pride
DYEAR=1995
DGENRE=Blues
TTITLE0=Toe-Tapper
TTITLE1=More Today Than Yesterday
TTITLE2=Love Makes The Man
TTITLE3=Kiss Me First
TTITLE4=Can't Go On Meeting Like This
TTITLE5=Relax, It's Just Like Dancing
TTITLE6=Uh, Oh
TTITLE7=I Ain't Much But I'm All I Got
TTITLE8=Another You
TTITLE9=This Is The Light
TTITLE10=He Lives In My Heart
EXTD=
EXTT0=
EXTT1=
EXTT2=
EXTT3=
EXTT4=
EXTT5=
EXTT6=
EXTT7=
EXTT8=
EXTT9=
EXTT10=
PLAYORDER=
